<?xml version="1.0" encoding="utf-8"?>
<!-- Generator: Adobe Illustrator 23.1.0, SVG Export Plug-In . SVG Version: 6.00 Build 0)  -->
<svg version="1.1" id="Capa_1" xmlns="http://www.w3.org/2000/svg" xmlns:xlink="http://www.w3.org/1999/xlink" x="0px" y="0px"
	 viewBox="0 0 595.28 595.28" style="enable-background:new 0 0 595.28 595.28;" xml:space="preserve">
<path d="M370,488.96V126.08h-49.52v362.88h-0.53l0.53,0.88v1.12h0.67l10.04,16.72h-0.18l13.98,24l0.3-0.51l0.06,0.1l24.21-40.3H370
	v-0.72l0.77-1.28H370z M322.48,128.08h10.25l2.87,360.45l2-0.02l-2.87-360.43h16.72l2.15,360.88h-31.12V128.08z M345.27,527.23
	l-10.54-17.55h20.77L345.27,527.23z M357.19,507.68h-23.66l-10.04-16.72h43.75L357.19,507.68z M368,488.96h-12.4l-2.15-360.88H368
	V488.96z"/>
</svg>
